<svg width="24" height="24" viewBox="0 0 24 24" fill="none" xmlns="http://www.w3.org/2000/svg">
<path d="M11.5996 5.6295L12 6.16463L12.4004 5.6295C13.3204 4.39971 14.7949 3.59998 16.44 3.59998C19.2315 3.59998 21.5 5.87378 21.5 8.68998C21.5 9.8256 21.3189 10.8737 21.0043 11.8461L21.0032 11.8493C20.249 14.236 18.7035 16.1596 17.0354 17.5933C15.365 19.0288 13.6004 19.9482 12.4589 20.3366L12.4589 20.3366L12.4536 20.3385C12.3537 20.3737 12.1893 20.4 12 20.4C11.8107 20.4 11.6463 20.3737 11.5464 20.3385L11.5464 20.3384L11.5411 20.3366C10.3996 19.9482 8.635 19.0288 6.96465 17.5933C5.29649 16.1596 3.75096 14.236 2.99676 11.8493L2.99677 11.8493L2.99572 11.8461C2.68114 10.8737 2.5 9.8256 2.5 8.68998C2.5 5.87378 4.76848 3.59998 7.56 3.59998C9.2051 3.59998 10.6796 4.39971 11.5996 5.6295Z" fill="#D7D7D7" stroke="url(#paint0_linear_1_375)"/>
<defs>
<linearGradient id="paint0_linear_1_375" x1="12" y1="20.9" x2="12" y2="3.09998" gradientUnits="userSpaceOnUse">
<stop stop-color="#1D0E3D"/>
<stop offset="1" stop-color="#0F051D"/>
</linearGradient>
</defs>
</svg>
